<mxfile host="app.diagrams.net" modified="2021-09-19T21:45:37.811Z" agent="5.0 (Windows NT 10.0; Win64; x64) AppleWebKit/537.36 (KHTML, like Gecko) Chrome/93.0.4577.82 Safari/537.36" etag="KEUY6x6zWiSIT0zYHx3m" version="15.2.9" type="github">
  <diagram name="Page-1" id="5f0bae14-7c28-e335-631c-24af17079c00">
    <mxGraphModel dx="2370" dy="1270" grid="1" gridSize="10" guides="1" tooltips="1" connect="1" arrows="1" fold="1" page="1" pageScale="1" pageWidth="827" pageHeight="1169" background="none" math="0" shadow="0">
      <root>
        <mxCell id="0" />
        <mxCell id="1" parent="0" />
        <mxCell id="B2vBktDefS06ZAs27ZS4-7" style="rounded=0;orthogonalLoop=1;jettySize=auto;html=1;entryX=0.5;entryY=0;entryDx=0;entryDy=0;entryPerimeter=0;" edge="1" parent="1" source="39150e848f15840c-1" target="B2vBktDefS06ZAs27ZS4-6">
          <mxGeometry relative="1" as="geometry" />
        </mxCell>
        <mxCell id="B2vBktDefS06ZAs27ZS4-15" style="edgeStyle=none;rounded=0;orthogonalLoop=1;jettySize=auto;html=1;dashed=1;" edge="1" parent="1" source="B2vBktDefS06ZAs27ZS4-9" target="39150e848f15840c-1">
          <mxGeometry relative="1" as="geometry" />
        </mxCell>
        <mxCell id="39150e848f15840c-1" value="Block" style="verticalAlign=top;align=left;spacingTop=8;spacingLeft=2;spacingRight=12;shape=cube;size=10;direction=south;fontStyle=4;html=1;rounded=0;shadow=0;comic=0;labelBackgroundColor=none;strokeWidth=1;fontFamily=Verdana;fontSize=12" parent="1" vertex="1">
          <mxGeometry x="79" y="510" width="270" height="200" as="geometry" />
        </mxCell>
        <mxCell id="39150e848f15840c-5" value="Administration&lt;br&gt;Module" style="shape=component;align=left;spacingLeft=36;rounded=0;shadow=0;comic=0;labelBackgroundColor=none;strokeWidth=1;fontFamily=Verdana;fontSize=12;html=1;" parent="1" vertex="1">
          <mxGeometry x="134" y="580" width="150" height="70" as="geometry" />
        </mxCell>
        <mxCell id="B2vBktDefS06ZAs27ZS4-5" style="rounded=0;orthogonalLoop=1;jettySize=auto;html=1;dashed=1;" edge="1" parent="1" source="B2vBktDefS06ZAs27ZS4-1" target="B2vBktDefS06ZAs27ZS4-3">
          <mxGeometry relative="1" as="geometry">
            <mxPoint x="614" y="240" as="sourcePoint" />
            <mxPoint x="858" y="340" as="targetPoint" />
          </mxGeometry>
        </mxCell>
        <mxCell id="B2vBktDefS06ZAs27ZS4-1" value="User" style="shape=umlActor;verticalLabelPosition=top;verticalAlign=bottom;html=1;outlineConnect=0;labelPosition=center;align=center;" vertex="1" parent="1">
          <mxGeometry x="597" y="140" width="30" height="60" as="geometry" />
        </mxCell>
        <mxCell id="B2vBktDefS06ZAs27ZS4-3" value="Browser" style="verticalLabelPosition=middle;verticalAlign=middle;html=1;shape=trapezoid;perimeter=trapezoidPerimeter;whiteSpace=wrap;size=0.23;arcSize=10;flipV=1;labelPosition=center;align=center;" vertex="1" parent="1">
          <mxGeometry x="564" y="310" width="100" height="60" as="geometry" />
        </mxCell>
        <mxCell id="B2vBktDefS06ZAs27ZS4-6" value="Administration&lt;br&gt;Schema" style="shape=cylinder3;whiteSpace=wrap;html=1;boundedLbl=1;backgroundOutline=1;size=15;" vertex="1" parent="1">
          <mxGeometry x="158" y="793" width="110" height="100" as="geometry" />
        </mxCell>
        <mxCell id="B2vBktDefS06ZAs27ZS4-8" style="rounded=0;orthogonalLoop=1;jettySize=auto;html=1;entryX=0.5;entryY=0;entryDx=0;entryDy=0;entryPerimeter=0;dashed=1;" edge="1" source="B2vBktDefS06ZAs27ZS4-9" target="B2vBktDefS06ZAs27ZS4-11" parent="1">
          <mxGeometry relative="1" as="geometry" />
        </mxCell>
        <mxCell id="B2vBktDefS06ZAs27ZS4-16" style="edgeStyle=none;rounded=0;orthogonalLoop=1;jettySize=auto;html=1;dashed=1;startArrow=classic;startFill=1;endArrow=none;endFill=0;" edge="1" parent="1" source="B2vBktDefS06ZAs27ZS4-9" target="B2vBktDefS06ZAs27ZS4-3">
          <mxGeometry relative="1" as="geometry" />
        </mxCell>
        <mxCell id="B2vBktDefS06ZAs27ZS4-9" value="Block" style="verticalAlign=top;align=left;spacingTop=8;spacingLeft=2;spacingRight=12;shape=cube;size=10;direction=south;fontStyle=4;html=1;rounded=0;shadow=0;comic=0;labelBackgroundColor=none;strokeWidth=1;fontFamily=Verdana;fontSize=12" vertex="1" parent="1">
          <mxGeometry x="479" y="510" width="270" height="200" as="geometry" />
        </mxCell>
        <mxCell id="B2vBktDefS06ZAs27ZS4-10" value="Application&lt;br&gt;Module" style="shape=component;align=left;spacingLeft=36;rounded=0;shadow=0;comic=0;labelBackgroundColor=none;strokeWidth=1;fontFamily=Verdana;fontSize=12;html=1;" vertex="1" parent="1">
          <mxGeometry x="534" y="580" width="150" height="70" as="geometry" />
        </mxCell>
        <mxCell id="B2vBktDefS06ZAs27ZS4-11" value="" style="shape=cylinder3;whiteSpace=wrap;html=1;boundedLbl=1;backgroundOutline=1;size=15;" vertex="1" parent="1">
          <mxGeometry x="558" y="793" width="110" height="100" as="geometry" />
        </mxCell>
        <mxCell id="B2vBktDefS06ZAs27ZS4-13" value="Company&lt;br&gt;Schema" style="shape=cylinder3;whiteSpace=wrap;html=1;boundedLbl=1;backgroundOutline=1;size=15;" vertex="1" parent="1">
          <mxGeometry x="568" y="804" width="110" height="100" as="geometry" />
        </mxCell>
        <mxCell id="B2vBktDefS06ZAs27ZS4-17" value="Administrator" style="shape=umlActor;verticalLabelPosition=top;verticalAlign=bottom;html=1;outlineConnect=0;labelPosition=center;align=center;" vertex="1" parent="1">
          <mxGeometry x="198" y="140" width="30" height="60" as="geometry" />
        </mxCell>
        <mxCell id="B2vBktDefS06ZAs27ZS4-18" value="Browser" style="verticalLabelPosition=middle;verticalAlign=middle;html=1;shape=trapezoid;perimeter=trapezoidPerimeter;whiteSpace=wrap;size=0.23;arcSize=10;flipV=1;labelPosition=center;align=center;" vertex="1" parent="1">
          <mxGeometry x="163" y="310" width="100" height="60" as="geometry" />
        </mxCell>
        <mxCell id="B2vBktDefS06ZAs27ZS4-20" style="rounded=0;orthogonalLoop=1;jettySize=auto;html=1;" edge="1" parent="1" source="B2vBktDefS06ZAs27ZS4-17" target="B2vBktDefS06ZAs27ZS4-18">
          <mxGeometry relative="1" as="geometry">
            <mxPoint x="424" y="250" as="sourcePoint" />
            <mxPoint x="424" y="320" as="targetPoint" />
          </mxGeometry>
        </mxCell>
        <mxCell id="B2vBktDefS06ZAs27ZS4-22" style="edgeStyle=none;rounded=0;orthogonalLoop=1;jettySize=auto;html=1;startArrow=none;startFill=0;endArrow=classic;endFill=1;" edge="1" parent="1" source="B2vBktDefS06ZAs27ZS4-18" target="39150e848f15840c-1">
          <mxGeometry relative="1" as="geometry">
            <mxPoint x="401.7777777777778" y="380" as="sourcePoint" />
            <mxPoint x="298.07407407407436" y="520" as="targetPoint" />
          </mxGeometry>
        </mxCell>
      </root>
    </mxGraphModel>
  </diagram>
</mxfile>
